<?xml version="1.0" standalone="no"?>
<!DOCTYPE svg PUBLIC "-//W3C//DTD SVG 20010904//EN"
 "http://www.w3.org/TR/2001/REC-SVG-20010904/DTD/svg10.dtd">
<svg version="1.0" xmlns="http://www.w3.org/2000/svg"
 width="744.000000pt" height="335.000000pt" viewBox="0 0 744.000000 335.000000"
 preserveAspectRatio="xMidYMid meet">

<g transform="translate(0.000000,335.000000) scale(0.100000,-0.100000)"
fill="#000000" stroke="none">
<path d="M0 1675 l0 -1675 3720 0 3720 0 0 1675 0 1675 -3720 0 -3720 0 0
-1675z m1218 457 l142 -3 0 -834 0 -834 -142 -3 -143 -3 -3 -180 c-4 -265 -8
-280 -10 -32 l-2 217 -125 0 -125 0 0 835 0 834 123 3 122 3 5 210 5 210 5
-210 5 -210 143 -3z m3596 198 c25 -9 26 -13 26 -88 l0 -79 -74 -5 c-101 -7
-119 -24 -124 -118 l-4 -69 83 -3 84 -3 0 -75 0 -75 -82 -3 -83 -3 0 -344 0
-345 -115 0 -115 0 0 345 0 344 -62 3 -63 3 0 75 0 75 61 3 61 3 7 87 c12 146
66 221 189 263 57 20 171 25 211 9z m-644 -612 l0 -603 -100 3 -99 3 -8 41 -8
41 -30 -27 c-57 -53 -103 -70 -190 -70 -66 0 -88 5 -130 26 -130 68 -195 207
-195 418 0 217 87 375 229 417 87 25 178 14 249 -30 l57 -35 3 209 2 209 110
0 110 0 0 -602z m-1178 541 c94 -24 198 -127 241 -238 55 -144 40 -452 -30
-611 -78 -175 -276 -300 -476 -300 l-57 0 0 90 0 90 53 0 c150 0 280 96 305
225 6 27 9 51 8 53 -2 1 -29 -13 -61 -32 -141 -85 -315 -47 -412 90 -45 62
-63 132 -63 240 0 149 31 226 124 312 98 90 224 118 368 81z m2396 -291 c171
-42 272 -212 260 -433 l-3 -60 -269 -3 -268 -2 7 -36 c29 -156 227 -208 372
-98 19 14 37 24 41 22 4 -2 27 -24 51 -50 51 -56 49 -70 -17 -120 -62 -48
-131 -74 -218 -83 -187 -18 -352 70 -429 230 -26 54 -30 72 -33 182 -4 127 5
177 50 266 42 85 133 158 227 183 59 16 169 17 229 2z"/>
<path d="M3735 1792 c-49 -23 -70 -53 -90 -129 -35 -133 -11 -280 55 -345 35
-35 43 -38 95 -38 65 0 105 18 134 59 19 27 21 43 21 204 0 174 0 176 -26 206
-33 40 -48 48 -104 55 -33 5 -56 1 -85 -12z"/>
<path d="M2805 2080 c-17 -11 -42 -39 -55 -62 -22 -37 -25 -55 -25 -138 0
-131 32 -192 116 -219 52 -17 118 2 164 46 l35 34 0 93 c0 181 -54 266 -168
266 -20 0 -51 -9 -67 -20z"/>
<path d="M5203 1789 c-32 -16 -48 -33 -68 -72 -14 -28 -25 -61 -25 -74 l0 -23
160 0 160 0 0 29 c0 73 -39 131 -99 150 -54 16 -80 14 -128 -10z"/>
</g>
</svg>
